  <svg version="1.1" xmlns="http://www.w3.org/2000/svg" viewBox="0 0 258.4000244140625 122.4000244140625"
    width="258.4000244140625" height="122.4000244140625">
    <!-- svg-source:excalidraw -->

    <defs>
      <style class="style-fonts">

      </style>

    </defs>
    <g transform="translate(25.20001220703125 58.800018310546875) rotate(0 3.199981689453125 26.800003051757812)"
      stroke="none">
      <path fill="#2e3440"
        d="M 1.69,0.42 Q 1.69,0.42 -0.20,7.76 -2.09,15.11 -3.38,19.85 -4.66,24.58 -5.67,31.78 -6.67,38.99 -6.32,42.86 -5.97,46.73 -3.30,48.21 -0.63,49.69 3.27,49.24 7.18,48.79 10.54,47.49 13.90,46.19 14.16,46.15 14.42,46.11 14.68,46.15 14.94,46.19 15.17,46.31 15.40,46.43 15.59,46.62 15.77,46.81 15.88,47.05 15.99,47.29 16.02,47.55 16.05,47.81 15.99,48.07 15.94,48.33 15.80,48.55 15.67,48.78 15.47,48.95 15.27,49.12 15.02,49.22 14.78,49.32 14.52,49.33 14.26,49.35 14.00,49.28 13.75,49.21 13.53,49.06 13.31,48.91 13.15,48.71 12.99,48.50 12.91,48.25 12.82,48.00 12.82,47.74 12.82,47.47 12.90,47.22 12.99,46.97 13.15,46.76 13.30,46.55 13.52,46.41 13.74,46.26 13.99,46.19 14.24,46.12 14.51,46.13 14.77,46.14 15.01,46.24 15.26,46.33 15.46,46.50 15.66,46.67 15.80,46.90 15.93,47.12 15.99,47.38 16.05,47.64 16.02,47.90 15.99,48.16 15.88,48.40 15.77,48.64 15.59,48.83 15.41,49.02 15.18,49.14 14.95,49.27 14.95,49.27 14.95,49.27 11.20,50.40 7.44,51.53 2.84,51.84 -1.75,52.16 -5.02,50.02 -8.30,47.88 -8.95,43.25 -9.60,38.61 -8.63,31.21 -7.65,23.80 -6.46,19.06 -5.26,14.32 -3.47,6.95 -1.69,-0.42 -1.62,-0.62 -1.54,-0.81 -1.42,-0.99 -1.30,-1.16 -1.14,-1.30 -0.98,-1.44 -0.80,-1.53 -0.61,-1.63 -0.40,-1.68 -0.20,-1.73 0.00,-1.73 0.21,-1.73 0.42,-1.68 0.62,-1.63 0.81,-1.53 0.99,-1.43 1.15,-1.29 1.31,-1.15 1.43,-0.98 1.55,-0.80 1.62,-0.61 1.69,-0.41 1.72,-0.20 1.74,0.00 1.72,0.21 1.69,0.42 1.69,0.42 L 1.69,0.42 Z">
      </path>
    </g>
    <g transform="translate(10 97.20001220703125) rotate(0 13.600006103515625 -7.1999969482421875)" stroke="none">
      <path fill="#2e3440"
        d="M -0.81,-1.72 Q -0.81,-1.72 4.04,-3.94 8.90,-6.17 13.92,-8.91 18.95,-11.65 21.11,-12.81 23.27,-13.97 23.51,-14.06 23.74,-14.14 23.99,-14.15 24.24,-14.15 24.48,-14.08 24.72,-14.00 24.92,-13.86 25.12,-13.71 25.27,-13.51 25.41,-13.30 25.49,-13.06 25.56,-12.83 25.55,-12.58 25.54,-12.33 25.45,-12.09 25.37,-11.86 25.21,-11.66 25.05,-11.47 24.84,-11.34 24.63,-11.20 24.39,-11.14 24.14,-11.09 23.90,-11.11 23.65,-11.13 23.42,-11.23 23.19,-11.33 23.00,-11.50 22.82,-11.66 22.70,-11.88 22.57,-12.10 22.53,-12.35 22.48,-12.59 22.52,-12.84 22.55,-13.09 22.67,-13.31 22.78,-13.53 22.96,-13.71 23.13,-13.88 23.36,-13.99 23.58,-14.10 23.83,-14.14 24.08,-14.17 24.32,-14.12 24.57,-14.07 24.78,-13.95 25.00,-13.82 25.17,-13.64 25.33,-13.45 25.43,-13.22 25.53,-12.99 25.55,-12.74 25.56,-12.49 25.50,-12.25 25.44,-12.01 25.31,-11.80 25.17,-11.59 24.97,-11.43 24.78,-11.28 24.78,-11.28 24.78,-11.28 22.66,-10.04 20.54,-8.81 15.47,-5.91 10.41,-3.02 5.61,-0.65 0.81,1.72 0.60,1.79 0.38,1.86 0.15,1.88 -0.07,1.90 -0.30,1.86 -0.52,1.83 -0.73,1.74 -0.95,1.65 -1.13,1.51 -1.31,1.37 -1.46,1.19 -1.61,1.02 -1.70,0.81 -1.80,0.60 -1.85,0.38 -1.90,0.15 -1.89,-0.07 -1.88,-0.30 -1.81,-0.52 -1.75,-0.74 -1.64,-0.94 -1.52,-1.14 -1.36,-1.30 -1.20,-1.47 -1.01,-1.59 -0.81,-1.72 -0.81,-1.72 L -0.81,-1.72 Z">
      </path>
    </g>
    <g transform="translate(22 62.800018310546875) rotate(0 19.20001220703125 -3.600006103515625)" stroke="none">
      <path fill="#2e3440"
        d="M -0.30,-1.80 Q -0.30,-1.80 5.23,-2.65 10.76,-3.50 15.87,-4.30 20.99,-5.10 25.89,-6.11 30.79,-7.12 32.89,-7.54 34.99,-7.96 35.23,-7.97 35.46,-7.98 35.69,-7.92 35.92,-7.85 36.11,-7.72 36.31,-7.59 36.45,-7.40 36.59,-7.21 36.66,-6.98 36.74,-6.76 36.74,-6.52 36.73,-6.29 36.66,-6.07 36.58,-5.84 36.44,-5.66 36.29,-5.47 36.10,-5.34 35.90,-5.21 35.67,-5.15 35.45,-5.08 35.21,-5.10 34.97,-5.11 34.76,-5.20 34.54,-5.29 34.36,-5.44 34.18,-5.60 34.06,-5.80 33.94,-6.00 33.89,-6.23 33.84,-6.47 33.87,-6.70 33.90,-6.93 34.00,-7.15 34.10,-7.36 34.26,-7.53 34.42,-7.70 34.63,-7.81 34.84,-7.92 35.07,-7.96 35.31,-7.99 35.54,-7.95 35.77,-7.91 35.98,-7.80 36.19,-7.69 36.35,-7.52 36.51,-7.34 36.61,-7.13 36.71,-6.91 36.73,-6.68 36.75,-6.45 36.70,-6.22 36.65,-5.99 36.53,-5.78 36.40,-5.58 36.22,-5.43 36.04,-5.28 35.82,-5.19 35.60,-5.11 35.60,-5.11 35.60,-5.11 33.51,-4.63 31.42,-4.16 26.47,-3.07 21.51,-1.97 16.41,-1.07 11.31,-0.17 5.80,0.81 0.30,1.80 0.08,1.81 -0.13,1.82 -0.35,1.77 -0.57,1.73 -0.77,1.64 -0.97,1.54 -1.14,1.41 -1.31,1.27 -1.44,1.09 -1.57,0.92 -1.66,0.71 -1.75,0.51 -1.78,0.29 -1.82,0.08 -1.80,-0.13 -1.79,-0.35 -1.72,-0.56 -1.65,-0.77 -1.53,-0.96 -1.42,-1.15 -1.26,-1.30 -1.10,-1.45 -0.91,-1.56 -0.72,-1.67 -0.51,-1.74 -0.30,-1.80 -0.30,-1.80 L -0.30,-1.80 Z">
      </path>
    </g>
    <g transform="translate(66.79998779296875 89.20001220703125) rotate(0 10 7.1999969482421875)" stroke="none">
      <path fill="#2e3440"
        d="M 1.22,-1.52 Q 1.22,-1.52 4.61,1.30 8.01,4.12 11.68,6.69 15.36,9.25 16.96,10.34 18.56,11.42 18.75,11.61 18.95,11.79 19.07,12.03 19.20,12.26 19.24,12.53 19.28,12.79 19.24,13.06 19.20,13.32 19.07,13.56 18.95,13.79 18.75,13.98 18.56,14.16 18.31,14.27 18.07,14.39 17.81,14.41 17.54,14.44 17.28,14.39 17.02,14.33 16.79,14.19 16.56,14.05 16.38,13.85 16.21,13.64 16.11,13.40 16.01,13.15 16.00,12.88 15.98,12.61 16.06,12.35 16.13,12.10 16.28,11.87 16.43,11.65 16.64,11.49 16.85,11.33 17.11,11.24 17.36,11.16 17.63,11.16 17.90,11.16 18.15,11.24 18.40,11.33 18.62,11.49 18.83,11.65 18.98,11.87 19.13,12.10 19.20,12.35 19.27,12.61 19.26,12.88 19.25,13.15 19.15,13.40 19.05,13.64 18.87,13.85 18.70,14.05 18.47,14.19 18.24,14.33 17.98,14.39 17.72,14.44 17.45,14.41 17.19,14.39 16.94,14.27 16.70,14.16 16.70,14.16 16.70,14.16 15.10,13.08 13.50,11.99 9.64,9.45 5.78,6.91 2.28,4.21 -1.22,1.52 -1.38,1.35 -1.55,1.19 -1.67,0.98 -1.79,0.78 -1.85,0.55 -1.92,0.33 -1.93,0.09 -1.95,-0.13 -1.90,-0.36 -1.86,-0.60 -1.76,-0.81 -1.66,-1.02 -1.51,-1.21 -1.36,-1.39 -1.18,-1.54 -0.99,-1.68 -0.77,-1.77 -0.56,-1.87 -0.33,-1.91 -0.09,-1.95 0.13,-1.93 0.37,-1.91 0.59,-1.84 0.82,-1.77 1.02,-1.65 1.22,-1.52 1.22,-1.52 L 1.22,-1.52 Z">
      </path>
    </g>
    <g transform="translate(94 75.60000610351562) rotate(0 -11.20001220703125 18.400009155273438)" stroke="none">
      <path fill="#2e3440"
        d="M 1.52,1.14 Q 1.52,1.14 -0.60,3.85 -2.74,6.56 -7.98,15.44 -13.23,24.32 -15.50,28.12 -17.76,31.92 -17.92,32.12 -18.08,32.31 -18.29,32.44 -18.51,32.57 -18.75,32.63 -18.99,32.69 -19.24,32.66 -19.49,32.64 -19.72,32.54 -19.95,32.43 -20.13,32.26 -20.31,32.10 -20.43,31.88 -20.55,31.66 -20.60,31.41 -20.64,31.17 -20.60,30.92 -20.57,30.67 -20.45,30.45 -20.34,30.23 -20.16,30.05 -19.98,29.88 -19.75,29.77 -19.53,29.66 -19.28,29.63 -19.03,29.60 -18.79,29.65 -18.54,29.70 -18.33,29.83 -18.11,29.96 -17.95,30.14 -17.78,30.33 -17.69,30.56 -17.59,30.79 -17.58,31.04 -17.56,31.29 -17.62,31.53 -17.69,31.77 -17.82,31.98 -17.96,32.19 -18.16,32.35 -18.36,32.50 -18.59,32.58 -18.83,32.67 -19.08,32.67 -19.33,32.67 -19.56,32.60 -19.80,32.52 -20.00,32.37 -20.20,32.22 -20.35,32.02 -20.49,31.81 -20.56,31.57 -20.63,31.33 -20.62,31.08 -20.61,30.83 -20.52,30.60 -20.43,30.37 -20.43,30.37 -20.43,30.37 -18.24,26.52 -16.04,22.68 -10.79,13.57 -5.53,4.47 -3.53,1.66 -1.52,-1.14 -1.36,-1.31 -1.20,-1.47 -1.01,-1.59 -0.81,-1.72 -0.60,-1.79 -0.38,-1.86 -0.15,-1.88 0.07,-1.90 0.30,-1.86 0.52,-1.83 0.74,-1.74 0.95,-1.65 1.13,-1.51 1.31,-1.37 1.46,-1.19 1.61,-1.02 1.70,-0.81 1.80,-0.60 1.85,-0.38 1.90,-0.15 1.89,0.07 1.88,0.30 1.81,0.52 1.75,0.74 1.64,0.94 1.52,1.14 1.52,1.14 L 1.52,1.14 Z">
      </path>
    </g>
    <g transform="translate(158 60.4000244140625) rotate(0 -21.600006103515625 20.79998779296875)" stroke="none">
      <path fill="#2e3440"
        d="M 0.44,1.64 Q 0.44,1.64 -2.09,2.28 -4.63,2.92 -9.96,5.43 -15.28,7.93 -22.07,13.29 -28.86,18.65 -32.60,23.10 -36.34,27.55 -37.07,30.93 -37.79,34.31 -33.52,35.74 -29.25,37.16 -25.77,37.11 -22.28,37.06 -20.71,36.96 -19.13,36.86 -18.88,36.90 -18.64,36.94 -18.42,37.05 -18.19,37.17 -18.02,37.35 -17.85,37.53 -17.74,37.76 -17.64,37.99 -17.61,38.23 -17.58,38.48 -17.63,38.73 -17.69,38.97 -17.81,39.19 -17.94,39.40 -18.13,39.56 -18.32,39.73 -18.55,39.82 -18.78,39.91 -19.03,39.93 -19.28,39.94 -19.53,39.88 -19.77,39.81 -19.97,39.67 -20.18,39.53 -20.33,39.33 -20.49,39.14 -20.57,38.90 -20.65,38.66 -20.65,38.41 -20.65,38.16 -20.57,37.93 -20.49,37.69 -20.34,37.49 -20.19,37.29 -19.99,37.15 -19.78,37.01 -19.54,36.94 -19.30,36.87 -19.05,36.88 -18.80,36.89 -18.57,36.99 -18.33,37.08 -18.14,37.24 -17.95,37.40 -17.82,37.61 -17.69,37.83 -17.64,38.07 -17.58,38.32 -17.61,38.56 -17.63,38.81 -17.74,39.04 -17.84,39.27 -18.01,39.45 -18.18,39.63 -18.40,39.75 -18.62,39.87 -18.87,39.91 -19.12,39.95 -19.12,39.95 -19.12,39.95 -20.69,39.86 -22.27,39.78 -26.20,39.76 -30.12,39.75 -34.64,38.01 -39.15,36.26 -38.90,31.12 -38.64,25.97 -34.66,21.16 -30.69,16.36 -23.65,10.78 -16.61,5.19 -11.04,2.51 -5.48,-0.16 -2.96,-0.90 -0.44,-1.64 -0.24,-1.67 -0.04,-1.70 0.16,-1.68 0.36,-1.67 0.56,-1.60 0.75,-1.53 0.92,-1.42 1.10,-1.30 1.24,-1.15 1.38,-1.00 1.48,-0.82 1.58,-0.64 1.63,-0.44 1.69,-0.24 1.69,-0.04 1.70,0.16 1.65,0.36 1.61,0.56 1.52,0.75 1.43,0.93 1.29,1.09 1.16,1.25 0.99,1.37 0.83,1.49 0.64,1.57 0.44,1.65 0.44,1.64 L 0.44,1.64 Z">
      </path>
    </g>
    <g transform="translate(180.4000244140625 82) rotate(0 14 -6.399993896484375)" stroke="none">
      <path fill="#2e3440"
        d="M -0.79,-1.38 Q -0.79,-1.38 2.43,-3.19 5.67,-4.99 9.88,-9.30 14.10,-13.62 16.11,-16.09 18.12,-18.56 12.21,-16.26 6.30,-13.95 2.63,-9.44 -1.03,-4.93 -0.89,-0.91 -0.75,3.11 4.74,4.28 10.23,5.45 17.43,3.74 24.63,2.02 27.81,1.29 30.99,0.57 31.21,0.55 31.43,0.54 31.64,0.60 31.85,0.65 32.03,0.77 32.21,0.89 32.34,1.06 32.48,1.24 32.55,1.44 32.62,1.65 32.62,1.86 32.62,2.08 32.56,2.29 32.49,2.50 32.36,2.67 32.23,2.85 32.05,2.97 31.87,3.09 31.66,3.15 31.45,3.21 31.24,3.20 31.02,3.19 30.82,3.12 30.61,3.04 30.45,2.90 30.28,2.76 30.16,2.57 30.05,2.39 30.00,2.18 29.95,1.96 29.97,1.75 30.00,1.53 30.08,1.33 30.17,1.13 30.32,0.97 30.47,0.81 30.66,0.71 30.85,0.61 31.07,0.57 31.28,0.53 31.50,0.57 31.71,0.60 31.91,0.70 32.10,0.80 32.25,0.96 32.40,1.11 32.49,1.31 32.59,1.51 32.61,1.72 32.64,1.94 32.59,2.15 32.55,2.36 32.44,2.55 32.33,2.74 32.16,2.88 32.00,3.02 31.80,3.11 31.60,3.19 31.60,3.19 31.60,3.19 28.42,3.93 25.24,4.67 17.48,6.40 9.72,8.13 3.82,6.59 -2.06,5.05 -2.75,-0.55 -3.43,-6.16 0.69,-11.32 4.81,-16.48 10.80,-19.77 16.78,-23.05 18.65,-20.94 20.51,-18.82 18.36,-15.20 16.20,-11.58 11.70,-6.97 7.20,-2.36 4.00,-0.48 0.79,1.38 0.61,1.46 0.43,1.53 0.24,1.56 0.05,1.59 -0.13,1.58 -0.32,1.56 -0.50,1.50 -0.69,1.44 -0.85,1.33 -1.01,1.23 -1.15,1.09 -1.28,0.95 -1.37,0.78 -1.47,0.62 -1.52,0.43 -1.58,0.24 -1.58,0.05 -1.59,-0.13 -1.55,-0.32 -1.51,-0.51 -1.43,-0.68 -1.34,-0.86 -1.22,-1.01 -1.10,-1.15 -0.94,-1.27 -0.79,-1.38 -0.79,-1.38 L -0.79,-1.38 Z">
      </path>
    </g>
    <g transform="translate(242 10) rotate(0 -0.399993896484375 33.20001220703125)" stroke="none">
      <path fill="#2e3440"
        d="M 1.72,0.47 Q 1.72,0.47 0.97,2.98 0.22,5.49 -1.48,14.54 -3.18,23.59 -3.92,31.30 -4.65,39.02 -4.30,45.18 -3.94,51.33 -1.81,55.12 0.31,58.90 3.26,61.43 6.20,63.96 6.36,64.17 6.52,64.38 6.61,64.63 6.70,64.89 6.70,65.15 6.70,65.42 6.62,65.67 6.54,65.93 6.38,66.14 6.22,66.35 6.00,66.50 5.78,66.66 5.52,66.73 5.27,66.80 5.00,66.79 4.74,66.78 4.49,66.68 4.24,66.59 4.03,66.41 3.83,66.24 3.69,66.02 3.55,65.79 3.49,65.53 3.43,65.27 3.46,65.01 3.49,64.74 3.59,64.50 3.70,64.25 3.89,64.06 4.07,63.86 4.30,63.74 4.54,63.61 4.80,63.57 5.06,63.52 5.33,63.56 5.59,63.60 5.82,63.72 6.06,63.85 6.25,64.04 6.43,64.23 6.55,64.47 6.66,64.71 6.69,64.98 6.72,65.24 6.67,65.50 6.61,65.76 6.48,65.99 6.34,66.22 6.14,66.40 5.94,66.57 5.69,66.67 5.44,66.77 5.18,66.79 4.91,66.81 4.65,66.74 4.40,66.67 4.18,66.52 3.95,66.37 3.95,66.37 3.95,66.37 0.91,63.33 -2.12,60.30 -4.46,55.96 -6.80,51.63 -7.22,45.19 -7.64,38.75 -6.95,30.89 -6.26,23.02 -4.62,13.82 -2.98,4.62 -2.35,2.07 -1.72,-0.47 -1.64,-0.67 -1.56,-0.87 -1.43,-1.04 -1.31,-1.22 -1.14,-1.35 -0.98,-1.49 -0.78,-1.59 -0.59,-1.69 -0.38,-1.73 -0.17,-1.78 0.04,-1.77 0.25,-1.77 0.46,-1.71 0.67,-1.65 0.86,-1.55 1.05,-1.44 1.21,-1.30 1.37,-1.15 1.48,-0.97 1.60,-0.79 1.67,-0.58 1.74,-0.38 1.77,-0.17 1.79,0.04 1.75,0.25 1.72,0.47 1.72,0.47 L 1.72,0.47 Z">
      </path>
    </g>
  </svg>
